<svg width="80px"  height="80px"  xmlns="http://www.w3.org/2000/svg" viewBox="0 0 100 100" preserveAspectRatio="xMidYMid" class="lds-progress">
    <defs>
      <clipPath ng-attr-id="{{config.cpid}}" x="0" y="0" width="100" height="100" id="lds-progress-cpid-5009611b8a418">
        <rect x="0" y="0" width="66.6667" height="100">
          <animate attributeName="width" calcMode="linear" values="0;100;100" keyTimes="0;0.5;1" dur="1" begin="0s" repeatCount="indefinite"></animate>
          <animate attributeName="x" calcMode="linear" values="0;0;100" keyTimes="0;0.5;1" dur="1" begin="0s" repeatCount="indefinite"></animate>
        </rect>
      </clipPath>
    </defs>
    <path fill="none" ng-attr-stroke="{{config.c1}}" stroke-width="2.7928" d="M82,63H18c-7.2,0-13-5.8-13-13v0c0-7.2,5.8-13,13-13h64c7.2,0,13,5.8,13,13v0C95,57.2,89.2,63,82,63z" stroke="#f47e60"></path>
    <path ng-attr-fill="{{config.c2}}" ng-attr-clip-path="url(#{{config.cpid}})" d="M81.3,58.7H18.7c-4.8,0-8.7-3.9-8.7-8.7v0c0-4.8,3.9-8.7,8.7-8.7h62.7c4.8,0,8.7,3.9,8.7,8.7v0C90,54.8,86.1,58.7,81.3,58.7z" fill="#abbd81" clip-path="url(#lds-progress-cpid-5009611b8a418)"></path>
  </svg>